<svg xmlns="http://www.w3.org/2000/svg" width="400" height="200"><g><path d="M9.41388417556882 98.80303888246416 C24.461822450906038 83.83152768537401, 67.44022349988421 10.29522957727313, 99.08989542797208 10.342203640192746 C130.73956735605995 10.389177703112363, 165.69359121794503 99.07501475736498, 199.31191574409604 99.08488325998186 C232.93024027024705 99.09475176259875, 269.1706860986849 10.255336283892392, 300.7998425848782 10.40141465589404 C332.42899907107153 10.547493027895689, 374.33775976970793 85.20184357091784, 389.0868546612561 99.96135349199176 M11.307034638402984 100.78903035041876 C26.832119219480084 85.42684352305717, 70.1777219683708 8.54380189356394, 101.32404506403022 8.399285802515223 C132.47036815968963 8.254769711466507, 164.8278708916685 99.36914506462402, 198.18497321235947 99.92193380412645 C231.54207553305042 100.47472254362889, 269.3647477997126 11.647706590862946, 301.46665898817594 11.716018239529804 C333.5685701766393 11.784329888196662, 375.9848475452047 85.44585457530803, 390.7964403431397 100.33180369612761" stroke="#000" stroke-width="1" fill="none"/></g><g><path d="M9.767654558433819 150.26728285553952 C9.767654558433819 150.26728285553952, 9.767654558433819 150.26728285553952, 9.767654558433819 150.26728285553952 M9.767654558433819 150.26728285553952 C9.767654558433819 150.26728285553952, 9.767654558433819 150.26728285553952, 9.767654558433819 150.26728285553952 M13.488655037292528 152.1809482458346 C13.966460998506776 151.50756336480293, 14.292908176467135 151.00923188799158, 15.575393755705168 149.60533079929277 M13.389232728210526 152.0666665485427 C14.055279351200456 151.4006181938874, 14.945290627378544 150.38167422840255, 15.381821502436955 149.77909328942746 M17.331829309206356 154.34577819968862 C18.66152136052175 152.88687659992146, 19.473598789620624 150.75301969961617, 20.582885246652708 150.16644476776918 M16.891199439041216 154.20131545824287 C17.679481012695522 153.10639847236848, 18.453297845525647 152.60978233784232, 20.586595650225476 150.271335628852 M20.530279187297943 155.21939395958015 C22.43620269992875 153.92809051940623, 24.402324834679114 151.8434951567044, 26.80608215156758 149.06349837134104 M20.465204671210174 155.60742788681216 C22.538538344031135 154.03473589887548, 24.150244904350863 151.4727034848955, 26.179075333958508 150.0174055638395 M24.42973396166529 158.08045582761423 C26.8358599638173 155.44639665329962, 27.689872399269998 153.6551560582841, 30.60577261547793 151.06123622697638 M23.92654417039196 158.80604127291025 C25.775359573300552 156.22979836849356, 28.131061780443144 153.14953547990672, 30.495519342992942 149.7255201041219 M28.42775385184945 160.59812530893365 C31.77873608549545 155.46720866821983, 35.88370236779163 151.64327928861658, 37.359686535659215 150.59933375583364 M26.867516830291464 160.79685768335588 C29.1085182322574 158.6271538185769, 30.881351620818297 155.77772888082748, 37.34737024779149 149.6798020928852 M32.6193373294384 161.82372240675247 C36.284999855398 156.87982684494312, 39.88371508627472 152.67136040929523, 43.25410060661049 149.60030708476648 M31.191156728735642 162.91794588369882 C33.886378250283585 158.1556249807702, 37.51173649464571 155.83463660650588, 42.10551762210341 149.5510619433199 M34.09681154900899 166.06142368061077 C36.775474924267705 158.07026983016794, 40.683598501726294 155.40568090501074, 47.813342275112774 149.11414381645835 M35.04928977714589 165.13797407677006 C38.723601794977675 161.37774615676122, 41.91289129170225 155.02678260191328, 46.34596747161439 149.46500414580322 M39.259321503985504 168.4790107527346 C44.55541116002416 160.18269152928283, 46.834806435246776 156.59392730313303, 51.36229203489647 148.60735277427924 M37.68413620320318 166.7093566892267 C44.57747311969909 159.5863849651099, 48.7371749098123 154.40210355838713, 51.32904378731773 149.6811939009149 M42.885588020241286 166.8895673377979 C47.080677535523506 164.62500782532993, 50.659941834254795 159.62519412038804, 59.31902125213746 150.6426546726293 M41.54978135057392 168.16581582451047 C45.99555071334992 162.45920596136213, 50.272844252535066 157.09199028391697, 57.0442537322313 149.33970128222472 M46.213770277463894 168.47485613111314 C53.51407265240722 164.3521843183222, 60.74013174728675 153.70927626451413, 64.12128979854225 149.08701261726657 M45.19609094191442 170.07564982246515 C50.49370064328595 163.1452038286172, 57.70133771265223 157.07327170490393, 63.25473559603034 149.64910316502193 M48.868937176350286 172.31588065821563 C54.035667071100775 166.27329249598475, 57.63951210373166 163.39899605617646, 67.74906241177933 148.05808264305801 M48.52663729589038 173.15835097815727 C55.48366270385913 164.33408057710255, 62.9823450218693 157.00438187738789, 69.42012940935211 150.13312247870476 M52.36230345456899 175.49904695397225 C56.8031195907966 170.0230333273671, 60.129102441903605 165.09638007214767, 73.35103646355523 149.08689035576174 M51.98543544313908 175.70326722098497 C57.683970979066736 168.08238554134746, 64.90088848618615 160.41747040108046, 74.01060471187188 149.10580484856257 M57.029875512816965 178.76942104391838 C64.87868619431478 165.59927442077492, 74.31696120429089 156.06534493301464, 79.3681141915384 150.2051542902446 M55.18308895232624 176.53535959601487 C61.80893172818742 170.358176195239, 68.98263603527411 162.25085237650444, 78.31783278422684 150.07134195399345 M57.53168753078175 180.6368906233664 C68.17675327105052 168.71698022189926, 76.53191209494814 159.6108709397116, 83.15993046743537 149.10796255226467 M60.08352604610813 178.4338639430906 C65.0651301989836 171.9049176875983, 69.859639586291 167.36702390561715, 83.76901441609229 150.19924817028675 M63.07074243815084 179.25587463762895 C71.61330322739542 172.78123225514642, 76.17032633729792 166.34027268612786, 91.12832502891465 150.24109617668896 M62.910440572141006 181.32450047705606 C70.86573687605566 171.9323901949663, 76.981520148987 162.44273902253107, 89.73785213810547 148.7241839268407 M66.26801191461172 181.55032328201838 C78.34511440377197 169.53018832887693, 85.46042131721379 158.90873260920696, 94.34387024768273 151.96370576927546 M66.7097920030811 182.71697378775485 C76.66513563387713 170.9401598556201, 85.36914610344333 160.14112891495506, 94.85857798994164 149.42113234894458 M72.69349541884242 183.58400842162456 C80.45294452742012 173.1691745001279, 88.24130403909058 163.54680270658525, 98.01328433241758 150.3903444451139 M70.5683644655752 183.38776325980808 C78.18687474693377 177.34797921613895, 83.75553753489848 168.9400276726677, 100.1808667232475 149.75993219621932 M75.11698407254937 186.70436191220543 C81.81646260558544 175.81388434389385, 90.62001824944721 166.1454097879144, 104.38625424179723 150.78009656929405 M75.55203062429848 184.83646139350495 C82.85340531460106 175.74568506999023, 93.68278036334317 164.75737253613178, 105.76415871466985 149.60690660328598 M78.97547386340113 185.38450853862798 C89.67275195433609 170.83215900522532, 102.00224018968014 159.70849241465442, 111.6622585975282 150.92570649757388 M79.86066488488825 186.4403067432437 C90.48041596965929 172.72498677613444, 103.2991869118237 156.92759884728895, 111.27198287888393 149.92649182043377 M82.65575244209472 189.63123307642746 C94.98182012250724 175.02436414689595, 108.88650738643797 159.2957193165356, 115.45798088727896 148.99561151482044 M82.79823019101028 187.1746509790908 C89.41086611714049 179.55834589359608, 97.1768921404159 171.1393811163178, 115.126869871527 149.93577015206097 M88.3375762093271 187.84585155113922 C100.27222189094627 176.52307817282053, 110.78115536566497 162.23129879716635, 120.43383723275602 150.6966184767917 M87.30345511133027 189.7863301461129 C98.113989145536 175.96642755395195, 110.50220178112684 163.7110308450616, 121.8243798572743 149.57964659845683 M93.49290643175726 188.93037291740734 C101.069723092954 180.69071497503683, 109.61820204794293 172.4244977802625, 126.41744862162787 148.36122716835465 M91.13656995547598 190.2123263434853 C104.39332272312447 176.03474238117113, 115.72658913797692 161.47077343041633, 125.74407474176306 149.93067221401955 M97.85637798109175 190.20488528098994 C106.21966092896437 180.26348710759237, 113.87007826116479 168.34426049580892, 132.03016867560103 152.11030694526733 M97.5372755131227 190.80965394649738 C109.95686375322086 174.22521301954754, 124.84378869132979 157.98554922180318, 132.46354593966856 149.66422074903846 M101.54877156600853 188.4948792569767 C116.75303193543894 172.88815903383335, 130.33829200814844 158.50202724447095, 136.81055588234398 148.94042009239666 M103.03571528591712 190.75518296477006 C112.59286663643101 177.44778297943327, 123.77539719659154 166.2030608431832, 136.56938660662803 149.45831200791173 M107.98383664518559 187.5203767104574 C118.71092764941254 179.06724734813457, 127.10348154327389 170.15463876038336, 140.84090136356318 149.88649846550075 M110.04679840050602 188.74726778292438 C122.44236821223382 172.8878345401799, 134.5394697999649 160.18843213164212, 142.97121940731668 150.4687884909287 M118.71146851427252 180.7568020158534 C128.0485174987877 172.932575703065, 134.98839584407747 164.8186280633515, 146.87070110692724 149.1091668494465 M121.40087669550772 181.17911841991292 C127.91677365444932 174.50021969018576, 133.16873820316204 165.33151120927246, 148.71266874737188 150.7291387524875 M131.73211801598526 172.10707785914553 C138.80481794941923 164.35405736419838, 147.419129734945 155.95161435333236, 151.94318373414256 151.057419599992 M132.3456544316069 172.12339633124782 C140.02564981628646 164.9388811110154, 144.8413585874104 158.43585115505923, 152.28538854146876 149.6256740428775 M151.2204523822112 158.6127627501803 C153.7083875261339 155.78265818757404, 156.8921797034016 153.15780636943012, 157.94683459350824 149.64730849746036 M150.4625904330803 159.05861625285618 C152.42355740689084 156.45345907787365, 153.69174366385826 154.2800815053956, 159.0995856209284 150.09215309615598 M162.91225062982582 149.98415202324978 C164.83656728475418 148.1741949282156, 167.05506203601675 145.48452125618368, 168.70234874663305 145.14966255773493 M163.36824335466542 150.40897275548198 C164.9346580966324 148.96014491415232, 165.83594306026995 147.30875890306535, 168.49186833612052 144.8497667070728 M168.03383192644338 148.79417750841245 C172.34471493064572 146.01973096183212, 177.13673001486296 139.99868545355565, 181.34457314525514 136.52188509354846 M169.38023130959715 149.83880172387003 C172.7756402360305 147.54257180456986, 174.63951133292278 144.2502798367064, 181.18362376148596 136.33418117125063 M173.44264185928114 149.197799957773 C178.24338586283244 144.56411848673307, 182.65450160594494 143.2609942756258, 189.85784893993457 131.91653661662414 M175.01246828154035 150.28902883217324 C178.32197292079655 144.9482168631695, 184.26499920179492 138.69769439849878, 189.9557746010663 132.88612510682717 M178.15416996568226 150.1302805060254 C183.80065298894476 146.1956622279922, 187.82688534744554 142.72964228813763, 195.44526563465237 131.48696581829637 M179.80822555921756 149.04783604868814 C183.5176914640013 145.53189038272689, 186.85315463316402 140.06124186378563, 196.23813633314907 132.14845295246988 M185.24859091687222 149.06336983494 C190.0914454756397 143.62625063042665, 195.2011895569719 140.17803889701676, 203.140848070337 130.32587722822052 M185.5708123729678 151.01527702450292 C188.1080581020959 144.7952727031714, 193.4739448568256 141.9821188254514, 202.8480375092016 130.06728066078347 M191.80743195051946 149.6381614793838 C193.39214784051728 144.0061031224646, 200.39794298890524 140.14915086059335, 204.25754708970442 132.02369353237742 M189.64658750342824 149.51585593901584 C196.0610488471268 142.9340412449801, 199.96788578365368 137.92240582200893, 205.87693238990857 131.37151968728 M196.33095293833048 148.65911854511486 C199.19384312032076 145.24719515205314, 204.16966428917237 143.83608978898056, 209.9626364594136 131.91211118541133 M196.26743924027414 150.78939966751622 C199.78810212346696 144.96901480365983, 205.3467625456186 138.88656230925918, 209.92489503489776 132.095808381135 M200.86161861797385 151.18139706700006 C206.54511792048908 146.1287528609236, 209.6269784403837 138.17147329511963, 214.2481816091521 132.98148663263464 M200.36175761414282 150.39088113940218 C204.78387739426142 144.94723150202464, 209.27801539311793 140.04939845538092, 214.75858804182545 132.81039820719207 M206.58490940165714 149.69017068312746 C210.6223092420338 145.43942334, 214.34934866988462 138.53799402832644, 220.04032024123603 137.40494635576178 M206.82985341503294 149.68264034583476 C208.68654215235716 145.04811405063552, 212.7432098352235 141.94162653305432, 219.15465701023945 135.55512291990016 M211.374016856928 151.63549850076097 C214.00197328750005 145.83993798545214, 217.427555041116 143.35024220994345, 222.4023285713452 137.808599457479 M211.770623258934 150.82312973240053 C214.37598605757688 146.82047837227398, 216.78473209353902 143.7564802995786, 221.6839926700513 137.91630809945883 M216.70511984076262 148.6668876404701 C217.62251400952763 146.2798778255818, 221.8171900693361 143.67324193242507, 226.54005316544152 139.81203148165716 M217.1252842040351 150.02086716674398 C219.73511520991778 147.2316525614435, 222.3629643118098 144.7667047929957, 226.32789877570994 139.90748474827035 M222.01556698765003 150.60046948275073 C224.8772027713976 147.34847288592158, 224.89400724454853 145.69792781114273, 229.79893062315213 141.1654410137047 M221.48584312779226 149.80003028844027 C223.44251869311233 147.6208909913253, 226.26496014841476 145.58778095783873, 229.0897483388454 142.42739524330918 M227.5407538657151 150.0555170193223 C229.25437562652675 148.81460148886396, 230.79331601480368 147.28985376416261, 232.41142372934848 144.89981859995004 M227.45199321788547 150.19028563563728 C229.29161129493608 147.98707255208225, 231.12681404350445 145.7621055729933, 232.0586050310056 144.9884308903287 M232.44631622718876 150.19562215485973 C232.70651069883286 149.73574871842058, 233.4044745611361 149.04385699014495, 235.21741854550524 146.9552376847148 M232.44192396054274 150.17651888446315 C233.1111259471922 149.27024925259195, 233.75976428528062 148.6935552843642, 234.77820003593547 147.43856224263013 M237.99497884070215 149.84789551636106 C238.12117693688643 149.69235479493554, 238.4131554377964 149.34535809911188, 238.71279008770068 149.1345014023038 M237.9923683747248 149.9380923241367 C238.22095473896692 149.5942511548933, 238.46382533620445 149.4160012854528, 238.64097186699215 149.19716958137252 M241.56779902738666 151.75067736487836 C242.22823060005695 151.30978339094048, 242.33839645010053 150.99737013462752, 243.13580486794135 150.20041081950316 M241.62039447569435 151.7855626255274 C241.9920978838289 151.3813479220186, 242.45103962020548 150.8685667465558, 242.98881518245807 150.2613028562466 M245.15016925592556 154.62362755011748 C245.5485766399242 153.07818731754165, 246.91056447090855 151.5791266295493, 248.13928847741883 149.71698036455336 M244.82755742870853 154.22811595626155 C245.82621087205845 153.39017821986323, 246.85060470818772 152.0432781431382, 248.88676222935868 150.02246025224002 M248.46948413103908 156.55161253578913 C250.1882911090385 154.4406350453175, 251.0397569893913 153.5433258148878, 254.41801644075696 149.73385309930092 M247.74282548194842 156.61196227969555 C249.02291610964414 155.31008114735408, 250.87072132086564 152.88791812199284, 253.72192475521973 150.19210053076168 M250.76891173667798 159.10121271468628 C252.51249823123734 157.51016054064883, 255.67103415616296 155.68112600418672, 259.4350152901884 148.64457046363177 M250.68172897820887 160.1022786510915 C253.26016540664796 156.02230657016264, 256.630304222858 153.42595548490027, 258.99569145837313 150.24388490860954 M254.26613423961243 161.40830024633465 C255.98554069389587 157.56201109596768, 261.0582198439128 154.08868823552956, 265.5189089913939 150.81677579348928 M254.0494334934934 161.84658433500584 C255.84636812987162 160.01164181259392, 258.6404838846958 157.1083897009138, 264.40347029018153 150.6752295694316 M257.1748626466328 165.73678592624148 C259.1007377561604 160.00542761330675, 264.2567291302821 157.73940568016536, 271.47823720081124 148.10802903661994 M256.63264238913075 164.72273604482416 C262.3777483754078 159.76500254326194, 266.7859562111871 153.66251524169817, 269.65265968367805 149.55569949962688 M259.23292748665403 168.66432697465623 C263.5425174042541 162.32624487186374, 267.7392081635703 159.32866230107066, 276.3598772045767 149.29200523887664 M260.4327350094725 166.5732609438708 C264.0445903616446 163.12831047690403, 267.6021989602356 157.85255431577926, 275.8491613008624 150.52461704593986 M264.76599355546233 167.57618280058685 C269.26279244632804 162.97008712010162, 275.10666517255356 155.84833536673085, 280.4309786752357 148.19035187599627 M262.50719310661253 169.01971637202385 C269.8752527553352 161.3967504125827, 275.62454988006243 155.10240135124428, 280.67106451359825 149.3738554758337 M268.17944216211237 170.4335227878944 C272.2059604232658 167.17394045343147, 280.0843543189785 156.40812113444503, 284.1432737719335 148.52631901252806 M266.08753537428476 172.00096756128528 C271.8107562076028 165.20748281423772, 276.80380069610146 158.06206662919266, 285.2173656217821 150.01400305565238 M267.68408873629176 175.50795338189138 C276.62019235349544 166.7801621611226, 281.29605096771115 160.43629542013994, 290.15641473233853 151.61287518333904 M270.0810494101455 175.19664097649886 C274.1505286473478 169.55657347806294, 279.8815924730816 163.04734618057836, 291.92036090605114 149.0586264647942 M274.1587174576879 176.59061227789036 C281.15056102289896 168.05194437876384, 291.78229653878026 156.15383470600491, 295.0487864281573 151.4263584941873 M271.59228843685094 176.49534745750836 C281.3511564673913 168.89598750653306, 289.2603193695806 159.35399427028472, 295.8478761560806 150.2866150785485 M276.6811402849788 179.362458840981 C283.6671016750155 170.2580383950196, 291.71121835814597 159.89548423385335, 303.4409785970585 149.69379997993968 M277.14163033104785 179.67747263893472 C283.63731486699453 169.31616445924018, 292.20272674182 161.1164294180301, 302.5142389025079 149.04200432631336 M280.7789608398711 181.53811242692134 C287.9498874162592 173.87550922578964, 293.3601286719029 163.86624348641686, 307.62231361074845 151.0556002463543 M278.60354150741153 181.87151527106724 C288.28242091859016 169.65999191989482, 298.7080138487157 159.03009018337625, 307.1943061850081 150.70915233337814 M281.89698761003314 184.7078853205784 C293.10346599426 176.07200632795843, 300.0402818643305 167.0891592402404, 313.6743187068957 150.1528528282981 M282.36149012157915 182.70862015830417 C291.54891815875794 171.96337803949947, 301.70869604516605 161.2034802711797, 312.73443678421853 149.11256327914109 M285.67982074616197 184.7457497974874 C299.6645246094902 171.65667754072817, 307.51358418512183 161.75256603579933, 317.0972537572067 150.79002083152915 M287.2780328672165 186.04304522071197 C292.71414044018394 178.18744775552523, 299.87217653807454 169.49433081249228, 316.86651898981444 150.99206403889144 M291.47108817794515 185.91549980296082 C296.736115348675 177.5261129233663, 306.0039803817736 171.54918192722738, 324.9335834993501 149.02226029091435 M289.8815510919799 187.3708231731344 C299.04109989058406 179.57948145816036, 305.9159984729301 169.02317315926882, 324.01894283243314 150.4026275420274 M293.1884456140606 189.99575095208846 C304.93090626900545 176.4675551575561, 315.51461516064273 162.23739516894096, 327.39450530503217 148.31809681221176 M294.92875079751593 188.26726152519248 C306.35462191586953 174.9912127296096, 318.91654152575353 160.60371020946258, 328.6306278517497 149.18954941383828 M298.2303994552053 187.66906927040554 C304.83161159547336 182.5398325344655, 312.23196727477176 173.20685245847258, 331.32736238293114 151.4014585105112 M297.99898555249047 189.0885713219527 C308.1469592939311 177.93976590045105, 318.3917685346126 167.58190200563533, 332.3059362994111 150.1429809139451 M302.31948388106684 189.38284245322458 C310.7590373137072 179.05733184981673, 322.00397331707785 170.7738442771579, 339.12246669172487 151.64080475090225 M304.02493357955973 191.14523840325884 C314.71901931373253 177.53305211979688, 328.04533751339704 162.95529624657783, 338.4089960520639 149.69955767696877 M307.03331987931375 189.71957028541252 C323.5143976804862 174.8195546664244, 335.79293263640164 160.5103694325756, 343.6199218531199 148.43825488914302 M308.51115678436105 190.38481382350906 C318.13628703016985 178.30208832689092, 329.9845255072456 166.97126518472942, 342.65802352438345 150.6440284531986 M313.39932010064285 188.29541254250466 C329.715691961062 174.13815617732618, 338.941262763347 161.84873037507347, 349.5770363547847 151.07162121010052 M314.81630561056 189.60296175276994 C323.9388829247634 179.8376657431829, 330.6628028383576 170.7821949101774, 348.280236872007 149.26378804703282 M322.04998400373233 187.1116410895907 C334.7066583936748 172.01717751760108, 348.9221547935063 159.28613064477003, 353.2948513184258 149.85708556953273 M321.9959141848035 187.1074115756624 C333.72573764242736 172.86304042340925, 346.03575386822723 160.26635185262512, 353.3258837596097 149.82405395876071 M330.1615436812981 184.20789736265147 C339.01728864027484 172.27810169001094, 353.18718851268443 158.52289577691786, 360.7416127317117 151.2365227523066 M329.4285461427762 183.68371537269854 C337.74494750345065 175.4012027579825, 347.099260721368 163.51069516905454, 360.47921359282896 148.96768974278046 M339.5456131789897 178.48538698610838 C343.52692343447256 173.41499336679075, 347.534572621169 166.32977922807765, 363.1792992163489 148.94017711418022 M338.59494394809644 180.73094253783103 C345.0225499557035 173.51588742277843, 348.7568881951184 168.19116149158714, 364.3725052863399 150.1903816493814 M350.30753917649463 175.1336851552739 C355.62882488174347 164.55283873143878, 366.853992638574 154.83140335042998, 371.287094260006 151.0739859400205 M350.42387957342044 173.00098516090355 C355.38446898636073 167.99065359421314, 359.5394783648182 161.0054544738462, 371.3970394957799 150.2404619829617 M362.37746001652874 166.00102705612886 C365.2566807813934 163.24141253317413, 370.6132489032659 156.83811833997206, 374.7879139843892 151.28225608558552 M360.5107135294328 168.28134844742823 C365.9110732558559 159.96784156277064, 372.3776489660254 153.84846343082484, 375.017126385824 149.5940857438107 M372.07220857399386 161.92711706345608 C375.4384085502657 158.43896792976778, 377.1907042063589 154.05467773143158, 380.72009455649896 148.32990885143795 M371.5431504440015 161.26212420340335 C373.1453140998874 158.34620933179895, 375.20118785820335 156.1140522048688, 381.4769934202057 149.0949588393762 M381.6255984377699 154.32770400385604 C383.3082096103568 153.42477844253116, 384.99455472158627 152.03996124138354, 385.60308206966346 150.35951125554783 M382.22909741463377 154.6268162021716 C383.19414592499027 153.18932862218995, 384.34676647518125 152.2096956027877, 385.9967994534431 149.8913436799128" stroke="coral" stroke-width="0.5" fill="none"/><path d="M9.41388417556882 148.80303888246416 C24.461822450906038 155.49819435204068, 67.44022349988421 193.62856291060646, 99.08989542797208 190.34220364019274 C130.73956735605995 187.055844369779, 165.69359121794503 129.07501475736498, 199.31191574409604 129.08488325998186 C232.93024027024705 129.09475176259875, 269.1706860986849 186.92200295055903, 300.7998425848782 190.40141465589403 C332.42899907107153 193.88082636122903, 374.33775976970793 156.8685102375845, 389.0868546612561 149.96135349199176 M11.307034638402984 150.78903035041876 C26.832119219480084 157.09351018972384, 70.1777219683708 191.87713522689728, 101.32404506403022 188.39928580251524 C132.47036815968963 184.9214363781332, 164.8278708916685 129.36914506462404, 198.18497321235947 129.92193380412647 C231.54207553305042 130.4747225436289, 269.3647477997126 188.3143732575296, 301.46665898817594 191.7160182395298 C333.5685701766393 195.11766322153, 375.9848475452047 157.11252124197472, 390.7964403431397 150.33180369612762" stroke="#000" stroke-width="1" fill="none"/></g></svg>