<svg xmlns="http://www.w3.org/2000/svg" width="400" height="300"><g><path d="M19.982293639035344 20.02036883826059 C19.982293639035344 20.02036883826059, 19.982293639035344 20.02036883826059, 19.982293639035344 20.02036883826059 M19.982293639035344 20.02036883826059 C19.982293639035344 20.02036883826059, 19.982293639035344 20.02036883826059, 19.982293639035344 20.02036883826059 M19.985138410624515 26.12047650609147 C21.666798806817674 24.656794444421106, 23.557441240933954 21.843875843568426, 26.41946898389221 18.870696882225335 M20.105438702755073 26.335877940337923 C21.91512464372417 24.56176448878111, 23.701962965088885 22.284832200040967, 25.372330372571806 20.042789834897725 M18.826164598568692 31.095635065803528 C23.899117679879552 27.429431649728922, 26.523456517644238 24.641209881546622, 32.072771747811096 18.387768449872237 M20.75427638868929 32.57985597736597 C22.8348582012788 29.000286752102017, 26.41273149724476 25.069905407989744, 30.195015150709406 20.3990697542722 M19.494398441749055 36.99161751237452 C23.381877048061433 33.672585473910544, 29.919394388479677 27.870934918855205, 33.830072662965264 21.199598295836886 M20.104119981291134 38.86005274806857 C25.889132579342164 32.251113382848054, 31.28205693086612 25.201437707481247, 34.69979079550585 19.36357416234835 M20.21682702740779 43.141916151383704 C26.602357140314954 38.13082902668244, 34.26018471580274 29.72452344379665, 43.234304016436724 19.610518175143973 M20.595784833562874 43.81417706351895 C25.351307484436635 39.67768007507365, 30.376467581857703 34.69569560500247, 40.77212125433543 19.586408783648388 M21.901860371917813 48.56662728199261 C29.80073537705245 39.750071334369444, 38.52311790696555 31.18384875935171, 45.14301024594698 18.908277303863283 M19.286884202376335 51.05194734530049 C29.698888548483204 39.693644319239326, 39.59078350970788 28.355493554999228, 46.35595898361299 21.156793179873343 M19.54137293395713 56.657647769290975 C27.127549870234116 46.45177068152884, 36.57312506488201 35.419134773906066, 50.340843589164535 18.28084421686178 M20.67826471437827 57.56078047803419 C27.407849289883657 48.826275632570216, 34.185858418986456 40.34026929052855, 52.82110026397578 20.75079403042143 M20.795207922203762 62.32640572836851 C28.056563377083087 51.491315344165855, 38.57618376255882 39.001449863304856, 55.53118891779589 21.579557019897493 M19.468038621215445 62.53707772134101 C31.0243521871122 50.07477423115932, 42.106707017500355 37.31779167269687, 56.172870885099044 20.20980071058193 M20.898000208364174 67.39298926498329 C35.566751156680326 52.12434768711377, 51.0782789555562 33.58976035318347, 61.459635969509534 20.40644674783739 M19.145906712563082 68.08785345051025 C33.71468813735226 52.389118235615335, 48.5588816727753 35.431015740182204, 62.863098377620034 18.94034864975306 M20.126589530106887 76.42817941400224 C38.87603910559464 54.63498019083365, 57.16357770833534 33.42567739481039, 68.54050711601198 21.27691400643952 M21.14807151905845 74.38526809494013 C34.50185750766387 58.51255223867399, 50.956623935437406 40.562792905573595, 67.104139781214 20.389295973224115 M19.4265482591384 79.91612678118341 C36.768469481173305 60.871012945736965, 52.69250212572967 41.81342744078873, 74.98032959497172 20.70705233057082 M20.1712650803768 80.14180477991991 C37.38291893605731 60.348261911344075, 55.493896506964575 42.030274372462145, 72.6798538765182 20.44364686039329 M17.8795946041367 86.09638448161654 C34.91990380920345 72.16771880557609, 49.34438068800898 54.2714614285029, 76.40436327809525 20.37632482598935 M19.327662148164862 87.7648022650706 C40.89224456125632 63.477951842254356, 60.84913976514112 40.44439442685376, 78.25962895320785 19.905728186549887 M19.610415523779814 92.35303688039134 C46.66700920603725 63.975292888958876, 71.263013565437 36.09893665175836, 83.9800729030511 18.21488752756206 M20.73920309906942 92.05808368501316 C33.8623753232543 78.01817870805316, 46.53846934701104 63.388475831847956, 83.20935504192026 18.89301288109211 M20.693489639774214 100.60382833326588 C41.19864971853265 75.1882790510717, 61.92733691643551 52.44214944253528, 88.04365584154573 19.566266041047 M20.131916847765694 98.9235852900369 C39.48085433398097 77.47335593125331, 60.20585899598778 53.334007851669824, 88.90545168233064 19.31329656930926 M18.620500439788415 105.14219612510709 C48.16356585494704 72.16657565090894, 76.5875725768692 42.67896998456749, 96.22351433124766 20.27467890131112 M19.99083404989095 104.51588938454 C41.05554158999334 82.30149713539824, 61.34539554015239 57.8868704714695, 94.54584015507623 19.26452093059953 M19.92686404552891 111.79994711167303 C45.65817396130264 84.12515185090537, 69.54489120966996 51.66001687832775, 101.06678324386338 21.847714214112457 M20.874014870120426 111.71740096881179 C45.94176466753888 80.95956077610111, 72.66385179904081 49.45267890173197, 98.46397124983231 19.509950340252217 M21.6591424156737 117.78929065805343 C49.58869829618366 84.66811358705232, 79.39252955683881 46.14951490464392, 106.16280231706142 18.543653014317982 M20.56746218510088 117.29288067747322 C37.04699305144857 97.03669913306153, 56.137361795954696 75.96007988428059, 105.93979749723613 19.877995227665537 M18.281866258900784 123.091967379338 C50.8388533714419 89.0387362245828, 78.49118098311585 54.54787520496389, 109.76964392254823 20.534145907685733 M20.679444496479057 122.59107352014527 C41.96720038638326 100.46125120477187, 61.51040599456206 76.47075357599766, 110.5138009369629 19.737388718128777 M20.58435794691667 129.84837788128482 C52.18544386394633 93.81106270450712, 84.38513748763577 55.887591619740775, 114.93758529799234 20.991536429082657 M19.234818843930213 130.24633762211727 C53.22989892187107 92.07112351815393, 86.8379009930187 52.533032782256186, 115.7979653496499 20.397009991040136 M21.14814471738986 134.1996156987608 C59.91128856113299 91.48834201601862, 96.24509727456247 50.288796287943626, 121.13563631510026 19.251537684266815 M19.82994400809161 135.33317716278736 C46.041901472144254 107.63467044294546, 70.60447361910249 78.97835470572903, 120.78980402497238 19.581060921688923 M23.285604500007857 139.94072477707846 C46.21512185590096 112.63702946447133, 71.01424548207548 81.50190869040026, 126.37501171154048 19.90055570810516 M22.258826336619485 140.33199985699935 C49.19556754107576 107.33241938544339, 77.42445885988178 74.85156478980876, 125.6833319935676 19.828889439473343 M27.163438148401184 141.60802283021366 C58.2797748593688 104.30123625468913, 93.68711816898923 65.29840769728634, 130.83565885901947 19.93836610635571 M26.324091976113124 139.5289403132603 C68.39584747491358 92.2690361312388, 110.08457386455709 46.2416425137103, 131.18309379511078 20.970166169682663 M33.55648886033332 140.6982929452611 C61.90796302127231 106.33677214886951, 95.79790841602869 70.97353046667038, 134.98972999520578 19.86543741388546 M31.278306292304748 140.5475516381962 C69.97041147138935 94.57493358757353, 108.49544329755773 51.34640522655941, 136.3151357102392 20.52470779171513 M36.46815887347276 140.68075365708773 C59.16357773030923 117.82622929175965, 80.22381125149025 93.08698930019716, 143.22810999180587 18.84560773645243 M38.13189056583161 140.67327551120525 C60.57586169766921 111.50733292927869, 82.8794965519878 84.85434928118335, 141.74103352862807 20.17765368086001 M42.82058305952597 138.68799307145156 C71.15120398103386 106.23336674216725, 97.12338326281997 77.08868189912388, 145.32782955749775 18.548117689146338 M43.030795586368924 139.85687630757667 C71.92544353490806 107.89150686286878, 101.35914299096254 74.19309544298739, 146.91280575192417 20.933998846738277 M46.5781011561615 140.60329222321957 C86.36969622434052 97.87494149620272, 121.49954740412127 57.42133795788418, 151.35888815095947 18.53673913705694 M49.06747388455398 139.11426445670872 C69.62144104699078 113.48255451982939, 90.43024419382121 88.64163525560022, 152.6672365067743 19.82022267397093 M52.37378553508582 140.22330171814983 C75.53070170406129 112.3041752178802, 99.70727972892857 88.05124710134777, 158.59107689389748 19.658903935942263 M53.594907500062014 141.00167308389072 C79.52350788879991 107.02040332380882, 108.28464065329011 74.73976327948566, 157.82019845785362 20.58591766284725 M57.632913433967445 138.34536509110927 C80.61538946713463 112.71296116469473, 106.77422603985546 86.34184611585576, 164.96139177398027 19.887736870669272 M58.037580213530276 140.01548136852085 C96.09719832980547 96.5993438366896, 133.16612332257876 53.68589331694032, 162.32156601079942 20.858322367765453 M64.19949472451285 141.9301954478559 C97.93031975054839 101.4115966338949, 135.01081360658094 57.78234084279656, 168.70056141291434 21.484732296996015 M63.205505314633996 141.06739118588837 C90.0792952440762 108.69592530638953, 116.46214934770452 79.11524079138593, 168.56924308028692 20.617498039014833 M68.45974414439056 139.18919882325673 C109.63615581927871 93.83844820401544, 148.26926806622015 47.24767296093698, 174.45651929836822 18.087077499789416 M69.10519783401045 139.88425046539152 C94.36555448239312 111.03570091674071, 117.7433284257156 82.71732552657107, 173.22013532195342 20.596151980993568 M72.96860906530708 138.7471508230698 C107.17952547994692 102.38616712340429, 144.10577999941336 60.07503691574766, 176.9209315520484 21.870329334807565 M74.2537023113349 139.4832298323196 C112.16271785744472 97.18860802976246, 150.0284379227091 51.58046207575627, 178.50417790047413 20.754814193990995 M80.57324172493088 140.72951998216206 C116.6059021092109 99.5804121216276, 147.6523967905156 63.998060701729074, 179.01631498768035 23.163995068254025 M79.48956502724457 140.57164596607083 C110.98543970860041 104.57665893829098, 142.25806390897645 68.35768453834052, 180.09895354754332 25.20991821374193 M86.03952699496847 139.9251444062915 C122.48544032862098 98.67247471180534, 162.57566064790063 51.66385382115401, 182.01950934293254 29.538855734995735 M85.28686177141469 140.02213824193444 C121.57573303967035 98.59299078523648, 159.68230744922687 57.156231591831784, 180.94066479379816 30.63362446964456 M90.17555461308838 140.87355513032517 C111.12472432143329 115.40602309936159, 133.04596513401248 93.63338034035189, 179.15638213446405 38.70551403967691 M91.56617007448257 139.2724920893087 C109.69467577486151 120.3434163041816, 126.55477438391658 99.29271578144152, 180.5063388238665 36.46486818587435 M95.45814695099708 141.02765276002103 C118.19986953578018 113.67561762800545, 141.7167132485636 82.9057781013293, 178.50865157095288 41.903523097387264 M95.00859697612341 140.80081563348287 C121.49960860004724 109.94947849623968, 148.904416847837 79.53435264474754, 179.4081503893951 43.61098812205226 M99.50027221737255 138.59574041046886 C120.9052653280051 120.92868290761481, 138.3961267095155 99.37166215466041, 179.23282752410546 49.78109601388485 M100.21069222798397 141.28007263407795 C121.10892801275989 116.62947002421467, 141.31293412571492 92.1520845101572, 179.29986278005913 49.6399361534676 M105.95786737089284 139.9306524467584 C121.81628349301344 122.06245346506, 139.17054264358705 103.11793119315325, 181.02762473159038 56.23713882403662 M106.27877120671101 140.27971122571492 C136.06036192954468 105.98137035982575, 165.05498196160204 72.75862387324516, 180.03174102649592 53.934810209518574 M111.43666103326443 138.9188832246476 C134.55732075186035 114.47984001737825, 153.5445135287024 87.6093826108318, 179.76049056511408 61.5839271336006 M111.42323782697979 140.96729265868302 C136.62383889658255 111.19680965430427, 161.8415130229095 82.57510967594018, 180.96457966838068 62.169030915494446 M118.95958669215582 140.82262002900353 C141.55338746538922 112.29949605088915, 166.88104281886052 84.30952868940861, 180.93501823335458 68.38913905766654 M116.11349774442755 139.26302423738053 C135.9063592212555 116.9799821342521, 156.1328189787486 93.37444351425273, 180.12461595736016 67.46087453101623 M121.5933104692735 141.44241971558418 C139.46550368577655 121.54678274473072, 155.78835360493264 100.61939597700027, 178.59776969498986 72.86498396132417 M122.39198612372952 140.3149359620967 C142.3360926146513 116.73632760041683, 162.67005596831544 92.3819899894801, 180.7978527700811 73.0751016907049 M128.57170335228597 138.2045320692565 C140.52482553674253 125.00193575097944, 155.34595463948838 109.34631721494479, 178.24509857172643 80.2573312003315 M127.68513987052296 140.89870388722974 C147.68655510960556 116.41047651165908, 166.9772421555583 95.06753609969213, 180.12438152121877 79.12458614484972 M132.92236896289972 141.32357644577854 C150.86561268867771 118.94606304051167, 168.624756837623 97.39237540869584, 182.29056335123283 84.68774305955554 M132.11742539948312 139.89282676306897 C150.36360327732652 121.72835647163848, 166.81104960463418 101.19275229850696, 180.25329536641044 85.72484769784893 M137.59011578878332 140.88986513001726 C148.46687798164692 130.70632458882946, 155.6397565315864 120.04610095293559, 181.69145515521552 92.3161513947543 M138.3223108662473 140.67844939401255 C151.0780367041984 124.87603511196441, 164.78200722788975 109.0002689940084, 179.65671697033133 91.46922884999181 M143.06348495164318 142.03207997773072 C158.50622843575402 124.95743853493816, 168.58491136627126 107.39135892248699, 181.4162109423525 97.1828905710175 M142.75629393549067 139.61453928034982 C153.9650066258758 128.893032437064, 162.84458451527476 116.93241801072037, 180.2847117096282 98.58342773589932 M149.49822243914784 140.00459577378584 C161.8598357575873 126.38225289873674, 174.23727508213256 111.81427108599021, 179.35123642132177 104.59782620343488 M149.50987401285053 140.43770997647894 C159.91637807569109 127.47849747341506, 170.50210062217872 113.53144836257681, 180.15961058594777 103.62712686519247 M152.3438068730038 139.3501568739407 C162.32384969340686 130.89155100184323, 170.23129007437586 119.18529703161228, 181.20772896382985 110.5294838977645 M153.62158001300213 140.73739773268926 C161.84504432641617 130.11454130619472, 171.98641357918427 119.3668408129049, 179.97033313896534 110.19562186316055 M160.46692174087957 140.98720056306223 C168.63614292609438 129.45558449878814, 176.3021116453986 123.4958163029578, 181.98909080754524 117.4470821888733 M158.8889425915827 140.35568485337893 C164.52348250351162 133.21493799805307, 171.32751573406838 127.45975450730901, 180.22730064931815 116.07435440920175 M163.77798316448164 141.3725336969085 C168.53041439447406 134.60106662857356, 174.08152324288108 128.5543435057219, 181.61745682417438 121.4832091825193 M165.1825219132675 139.8624763388373 C167.86911886240622 135.86496816032454, 172.23367779316345 129.84233991760715, 180.5764639066814 121.71408887860535 M171.04971041704175 139.6779984859238 C174.53970509309903 134.7621535477489, 176.27782856853895 132.67742689148082, 178.7948034689438 128.36323713517277 M170.2264112312032 139.20299887326087 C172.91926299984812 137.22824887376024, 175.432241139947 133.03155655710134, 180.7096349866737 129.19542947557284 M175.10047731438718 140.38625468642337 C176.5659350358991 138.8288983467548, 177.2659527520525 137.6851839636975, 180.19881293246542 133.50409109281318 M175.09905557597122 140.55751960978728 C176.54195754133892 138.6550713306551, 177.56683460204917 137.90315900484873, 180.2949826657215 134.1132850980939" stroke="skyblue" stroke-width="0.5" fill="none"/><path d="M18.00506480410695 18.48315904662013 C52.60054974630475 19.634680672734977, 82.53522612527013 22.114558740705252, 180.66902442649007 18.478091102093458 M19.756046345457435 20.113141575828195 C66.9417200293392 20.56407820023596, 115.59790419600905 20.637828398123382, 180.6242799665779 20.618266681209207 M178.5415782518685 20.523795943707228 C179.6832211315632 61.88246547058225, 180.72772851586342 101.51003682240844, 180.40300567820668 141.48709271475673 M179.5024638082832 19.43048963882029 C179.43096047975123 53.589666875079274, 180.41928208209575 85.5763377789408, 180.088827541098 139.79423634149134 M178.21766765788198 141.03551362082362 C139.95894872024655 142.77101081833243, 96.6509934850037 139.94297415241599, 19.13117714598775 141.0520139746368 M179.37608425877988 140.96325556375086 C117.17676027677953 139.77204181589187, 56.16364501975475 140.3705379549414, 20.435888161882758 140.7574622426182 M19.734626967459917 138.1783462576568 C19.575176890194417 112.28904351964593, 18.812974984943867 82.52191409096122, 18.85561402514577 19.344607811421156 M20.154190411791205 140.92536757327616 C19.410996832326056 106.15258853323758, 18.66528294272721 72.41543304361402, 19.511103918775916 20.49726323224604" stroke="#000" stroke-width="1" fill="none"/></g><g><path d="M268.991323308451 57.60386182428137 C268.991323308451 57.60386182428137, 268.991323308451 57.60386182428137, 268.991323308451 57.60386182428137 M268.991323308451 57.60386182428137 C268.991323308451 57.60386182428137, 268.991323308451 57.60386182428137, 268.991323308451 57.60386182428137 M265.4488090943408 68.36095868447143 C274.01822671499804 57.22070254075566, 280.39949092203716 48.9398415927043, 288.05411520092105 42.16869806634084 M264.5840318254989 68.69741441891807 C269.3061286018828 63.61639727666872, 273.6696917830269 58.609799823271295, 286.42474307915484 42.74700828963712 M261.8390972206561 78.0397322425614 C270.80594911649007 68.72004030512463, 280.1561241700658 56.54615370974095, 294.5072624174296 40.79724260995458 M262.1064312031684 78.5184020964424 C272.3088302142405 67.85882571292349, 282.25593294757067 55.92397090727348, 292.1802877256065 43.40189361589323 M260.69082854868424 82.38260981453139 C273.0756066197636 70.55950908435211, 282.5332867488318 59.96811105905178, 300.8672125288955 39.32823165659748 M263.100968286335 84.23788595398445 C272.88854887564133 71.23565579391372, 284.81030314492443 57.75311014963657, 298.5200167825184 41.84235828709744 M263.6495580841697 86.2558615770306 C274.18956662717767 75.03629308735361, 287.6732472703397 61.24399571742383, 303.57153443601567 41.03016873180485 M264.2592796237118 88.12429681272465 C278.7605613420604 71.49496601757545, 293.0344338372104 54.22892817161318, 304.44125256855625 39.19414459831631 M265.0280456988189 91.651450635817 C278.95139102350447 77.96638808982574, 294.21663454275216 60.80875154464912, 311.66364773150616 40.95050777155748 M265.407003504974 92.32371154795224 C275.49810961438624 82.41966718956141, 285.5993755783969 71.59829089885633, 309.20146496940487 40.9263983800619 M268.02519710130997 95.56674260598037 C283.4132064237542 78.42327446938098, 299.5129390808388 61.37038137905732, 312.2602359030354 41.757686060722335 M265.4102209317685 98.05206266928825 C284.12206138453683 77.50638913972129, 302.08219438543523 56.88679223270179, 313.4731846407014 44.006201936732396 M267.63288675032084 101.39363435261042 C279.8523884361254 85.62364026425662, 294.06746159146496 69.10432458434911, 315.48989215928145 43.39438171438917 M268.769778530742 102.29676706135363 C279.68767168382334 89.01172720656842, 290.4799707144164 75.90780858442595, 317.9701488340927 45.86433152794882 M271.51095785452947 104.04355399079687 C282.1641508492368 89.26825833579099, 296.1664143758871 72.7720702116979, 319.36811942993177 48.2025136778704 M270.18378855354115 104.25422598376936 C285.71051681455566 87.22451234570931, 300.81409819107097 69.84163781030372, 320.0098013972349 46.83275736855484 M274.8940452856424 105.33658962629777 C292.210780889239 87.11982239482803, 310.3365832065031 65.577856247141, 322.67233036568337 50.04824172670138 M273.1419517898413 106.03145381182473 C290.0809826621094 87.4927854923248, 307.3667341011758 67.72599192013959, 324.07579277379386 48.58214362861705 M276.09081169435666 112.10765103464843 C296.31895508992886 88.63770297594533, 316.08072362075836 65.73249264566904, 328.4410834542048 52.42812814574907 M277.1122936833082 110.06473971558631 C291.69461522944493 92.79224046941806, 309.3988563793074 73.40512489040535, 327.0047161194068 51.54051011253367 M278.67106556834074 111.82205050071573 C294.98686703059724 93.9700384928741, 309.8814432287003 76.09670716053573, 330.9445517592215 56.386523951217015 M279.41578238957914 112.04772849945223 C295.545034235774 93.47473701095498, 312.6065692958473 76.36399498173112, 328.64407604076797 56.123118481039484 M280.40440705829155 114.22876030003499 C294.8746833549489 103.14510708223642, 306.786769382958 88.13902476651052, 329.0882902973925 59.829344347749384 M281.8524746023197 115.89717808348905 C299.87328551580583 95.65073865317544, 316.3327411116297 76.64052526905161, 330.9435559725051 59.35874770830992 M285.4155231228872 116.71186479769595 C306.1371773223754 95.81348729028619, 324.2749446231351 75.36648293168909, 333.3837047773958 61.44145495043597 M286.5443106981768 116.41691160231777 C296.1982495690893 106.2010114852872, 305.42086589076547 95.54408025259767, 332.61298691626496 62.11958030396602 M291.0910104418152 119.67968918901109 C304.24877074483663 102.88113966946702, 317.6949126764296 88.51262005945034, 334.1669925709379 66.56638136503476 M290.52943764980665 117.9994461457821 C302.77970545643757 104.59302003351284, 316.3920211579981 88.63588462441636, 335.0287884117228 66.31341189329702 M292.9543754157724 119.68979949951566 C309.7914654352197 100.95031087458653, 325.8457395757559 85.69245477564391, 337.75443785770625 72.55776128685828 M294.32470902587494 119.06349275894857 C306.51324221055046 107.03327665923251, 317.78145983579236 92.99685540492587, 336.0767636815348 71.54760331614669 M299.50921125343694 120.30987384429943 C311.4852399330133 108.3373614092938, 321.87476239446113 91.39897290569652, 338.00529356738843 79.41376366121904 M300.45636207802846 120.22732770143818 C311.30230642853 105.86438120049795, 323.6428145025701 90.90161351978426, 335.40248157335736 77.0759997873588 M307.1460208844963 119.50683116867488 C316.1592848015551 108.75771764423868, 326.6594590581712 92.44543612310733, 337.1967813796719 82.90208868342951 M306.0543406539235 119.01042118809467 C311.4933427149966 111.85229849774119, 319.0129247767975 104.08634669543788, 336.9737765598466 84.23643089677707 M311.6414530756095 115.75299292728617 C321.7778150066563 106.9056293971051, 327.24683181979606 97.93374828768457, 335.55515075323467 90.93025821857943 M314.03903131318776 115.25209906809344 C319.089301561468 110.96835561354237, 323.12703972931956 104.81485786731463, 336.29930776764934 90.13350102902247 M322.0431877776697 112.72766060800637 C323.5781532407611 111.02056422929823, 325.47080685907224 108.49053097382931, 326.71910365697835 107.22228687035322 M321.5033721364751 112.88684450433935 C323.60592027163455 110.94482712230403, 325.2612016056105 108.69004100126301, 327.0632556776414 106.9844762951362" stroke="salmon" stroke-width="0.5" fill="none"/><path d="M285.16890143868386 43.24307196887831 C291.02400061682556 40.13392864398444, 300.7413620170118 38.51756949351228, 307.58605696727193 39.693768361932165 C314.43075191753206 40.869967230352046, 321.48828721934694 45.19579202764424, 326.2370711402446 50.30026517939759 C330.9858550611423 55.404738331150945, 334.450447918662 63.25505835892419, 336.0787604926578 70.32060727245229 C337.7070730666536 77.3861561859804, 338.25003017031213 85.69124173237026, 336.00694658421935 92.69355866056624 C333.76386299812657 99.69587558876222, 328.15449979133484 107.66121037563548, 322.6202589761013 112.33450884162816 C317.08601816086775 117.00780730762085, 309.37983155256507 120.10097920265167, 302.8015016928179 120.7333494565224 C296.22317183307075 121.36571971039314, 289.1729801562804 119.47302181888799, 283.1502798176183 116.12873036485252 C277.1275794789562 112.78443891081704, 270.30484975049137 106.97553819822637, 266.6652996608452 100.66760073230961 C263.02574957119907 94.35966326639284, 260.89801225849783 85.4897963188581, 261.31297927974146 78.28110556935192 C261.7279463009851 71.07241481984575, 264.78218473542137 63.34446328919705, 269.1551017883068 57.41545623527253 C273.52801884119225 51.48644918134801, 284.3390665472917 45.061318943565915, 287.55048159705416 42.707063245804775 C290.76189664681664 40.352807548043636, 288.3516185673593 42.712992713863294, 288.4235920868817 43.28992204870568 M302.19932438033396 41.193608972843876 C308.88999020679444 41.43661090460212, 317.96304485786686 44.25512320164087, 323.59541805571297 48.44839080136141 C329.2277912535591 52.641658401081955, 333.8687993509878 59.54762026663917, 335.99356356741043 66.35321457116714 C338.1183277838331 73.15880887569512, 337.81528642625295 82.39074093517554, 336.3440033542488 89.28195662852924 C334.87272028224464 96.17317232188294, 331.868565031933 102.50031882986497, 327.1658651353856 107.70050873128933 C322.46316523883826 112.9006986327137, 314.7478729779856 118.94485183409564, 308.1278039749646 120.4830960370754 C301.5077349719436 122.02134024005515, 294.0607850893033 119.86785312501056, 287.44545111725944 116.92997394916787 C280.8301171452156 113.99209477332519, 272.53732075574436 108.4419512642074, 268.43580014270145 102.85582098201934 C264.33427952965855 97.26969069983127, 263.3137376004134 90.60299449573742, 262.83632743900205 83.41319225603944 C262.3589172775907 76.22339001634145, 262.4597194633489 65.99975444508888, 265.57133917423346 59.717007543831414 C268.682958885118 53.434260642573946, 275.3653909223761 49.00261252788678, 281.50604570430926 45.71671084849463 C287.6467004862424 42.430809169102474, 298.66204123834825 40.670762379078944, 302.4152678658324 40.001597467478504 C306.16849449331653 39.332432555878064, 303.80128440220386 40.86380316744435, 304.0254054692139 41.70172137889198" stroke="#000" stroke-width="1" fill="none"/></g><g><path d="M18.736635469533674 199.03940585999788 C92.42916123593473 200.38727996116484, 163.17006219056057 201.95775202331745, 380.4236838029542 199.03619640168037 M19.845507565929356 200.07165097598994 C126.49673476985963 201.4565290253883, 234.07921567539285 201.50323399320763, 380.39534776291424 200.39153963347624" stroke="#000" stroke-width="1" fill="none"/></g><g><path d="M57.96917208153553 237.21866455484792 C57.96917208153553 237.21866455484792, 57.96917208153553 237.21866455484792, 57.96917208153553 237.21866455484792 M57.96917208153553 237.21866455484792 C57.96917208153553 237.21866455484792, 57.96917208153553 237.21866455484792, 57.96917208153553 237.21866455484792 M60.235221931853 241.75083357435054 C65.40809210826032 234.4460595170816, 70.7450517682771 228.94597649248095, 72.62244086164183 225.17393177200927 M60.11411278718397 241.99131125578992 C62.37644094585143 238.8031859839715, 64.35524680805283 236.1170110344167, 71.77571314294956 227.48022277730405 M62.75466275485928 243.718645254635 C69.08824599639141 237.01689895875916, 76.01383731632744 229.0528145155385, 79.40442318169936 227.04156376471423 M60.789190293203546 246.397448670604 C65.96082381736096 240.37800470577392, 70.69933229569014 234.38262665002307, 78.81100404521986 226.10642676291667 M63.17942217504813 248.94036355385475 C71.39473687105395 241.42535844998764, 73.83464962500042 236.29352790302966, 86.99335407508542 224.32377890007965 M64.41668436257376 248.82341760354035 C69.26356341459476 242.23860169103966, 72.7482765896131 236.3277052294007, 86.2724064499699 223.46096694911293 M67.0737818004348 252.47339099463093 C74.63655793313053 244.30135449261164, 82.7417582198077 235.1845164796572, 90.6490157038853 220.1454211754823 M67.78027148076973 251.43675044182706 C74.91447882715126 243.98581478771533, 80.29179336749446 234.9786572272214, 92.86457882048045 221.59262233992163 M71.54737650272577 252.26281568272157 C77.05379089301272 247.31142298743225, 82.33083659189715 236.9410590413186, 100.99199780576747 218.23352162578914 M70.43215243746667 253.28196156075342 C77.66501648506896 245.10834916463426, 85.84694355351107 236.7304859376603, 99.10184868738871 220.84542836474094 M73.43992796160852 254.51383781343918 C84.57977951321067 241.60676404133946, 94.57156908360972 228.37101967503628, 104.31162275243842 217.22848085675827 M74.55891170532082 254.9781305501632 C81.46608895469923 245.75035254635773, 91.44564023437597 236.62236333383368, 105.25907309036994 219.60374314886025 M77.54018563576108 255.57147925187343 C86.20779925606196 245.1029890947955, 93.69623679629021 238.4637774973511, 111.37729972358568 219.28081156370206 M78.88795841097897 255.9111117946773 C87.1633431023638 246.6618228528718, 95.07805973605336 236.63034499399612, 111.8704927520804 218.20149003212316 M82.8366906468899 258.0644218537824 C90.26881144999948 248.85374040471183, 96.67791299556461 240.81926539394019, 118.3135247068777 219.17613853148754 M82.62579021911631 257.6898727945851 C95.26439338069932 243.89283561674063, 107.29481654256583 229.34852819228823, 118.2922320781573 217.35965756892796 M87.32912995367306 259.50174998425587 C97.18635718933646 247.68202973719673, 105.99576796108738 238.7783845010692, 123.53852632402103 217.98845611587276 M85.95684750637966 260.05573668450756 C94.55479519906567 250.78136924511742, 100.71717610572425 242.25627732012305, 123.32844498327594 217.15205700956395 M90.279100235798 260.4167888386063 C102.52473640918929 245.94724618137775, 117.84289819237637 232.65303988761568, 129.8877380626842 214.16745160172465 M89.98177724542522 260.33872055428844 C104.41635984169713 246.48623507825215, 116.4031840644858 231.2792031510061, 129.0422871230736 215.4051456584293 M94.39722595194276 263.98268528192335 C104.68386632821789 251.60509939391278, 113.84628665363759 238.9601547372657, 136.24032604457364 214.70118184480125 M94.59205106289978 262.38561628854865 C106.89410165356477 248.2171142865209, 120.60132217018868 232.15354657541423, 136.06994366222546 216.1732035158133 M100.7499822528043 263.4015365897424 C114.28903568288278 248.52780962106027, 126.88260144443723 230.04143690867232, 138.98660222836736 214.95810621019234 M99.06428815246906 263.2616193073548 C106.83217524451557 254.34092712662823, 115.51335771892548 242.69147384560276, 140.77554247737828 214.89286621633698 M104.25893109706065 264.0105521271531 C121.63281155674476 244.62171331370362, 137.90202625521636 222.6059995585299, 147.5909063517339 213.32150573276482 M103.24699139077983 264.6689902453278 C114.33214131304557 251.68030889362947, 125.15552090137896 238.57084513101296, 148.50153609916936 212.3300441893985 M107.29542610641829 264.18060124991354 C121.85876389963254 251.1100639002699, 137.69963279623556 233.93125580897976, 152.87419272839873 213.59745017872228 M108.8427521925073 265.15810285275694 C119.78578409485647 251.90276363620492, 130.2034286808239 239.54935683433683, 153.53878850929289 212.3003897207327 M113.14802576854574 267.1582462428907 C127.59529920742145 245.49488114039755, 146.13321216632312 230.84485065113535, 159.76173859603034 213.08328308293173 M112.56316371328877 265.28197693404053 C124.22020575103058 250.4536019459711, 136.0537326675453 236.51323189320252, 159.56178348838614 213.05028198973784 M117.64902120514948 268.2284189618426 C132.30419522680916 246.55098271633491, 149.2580398851957 229.2800795173772, 162.90967188431628 213.73029839070563 M117.44284861779947 266.0714549894678 C130.28468962062863 251.92909058908037, 142.54132449374106 238.4161014233481, 164.9426523841054 211.73200371125762 M122.64184937490751 266.55645377185886 C133.61924681910875 251.94054699934892, 146.66015398676043 239.68631055916353, 168.892089272944 209.75932129735645 M121.99437228268613 268.1897351536596 C135.2366492618979 251.53572857795328, 151.21090472620267 233.9060286415271, 170.62579216910686 211.33182197513577 M127.54397501548836 267.82250670780655 C143.28558735057524 248.61385831856964, 157.6219805332473 232.5679231725406, 177.07605619160103 212.78570824819673 M127.45862473858604 267.87929035601434 C138.42552856183158 254.62456241863418, 150.20148272516485 241.9552497400971, 176.69036544104682 211.10748824621606 M134.285536469608 265.87481295566647 C143.7894301798287 255.58131186347822, 154.64071444408424 241.6473129367668, 180.49660681997483 208.94434693853898 M132.4309664961839 267.92762580204396 C147.58055551212973 250.48380266396325, 162.72365961415372 232.62297301222569, 180.91280042258148 211.0257383643423 M138.08887694594438 269.0623006305284 C157.53139456208962 243.56042401863692, 176.10007022517624 223.06679375089857, 186.7317440877529 212.0146563136957 M137.32825980712647 267.31239275136954 C148.19819384311813 254.22548666760088, 160.325028317834 240.3001294526947, 187.3292909613671 210.19979254435816 M141.0632493741851 269.1331386777047 C156.95216449669414 252.11714852820072, 167.56222843860957 238.1199365850092, 194.77743967462283 208.54558656897933 M141.67107351907003 267.4124364188347 C155.67147837313988 253.91511515711065, 168.95803583610765 239.0905688392029, 192.79829653006 209.3268553761074 M145.73587543401763 269.605027292508 C163.16292617308892 252.54840552941002, 174.3440212855661 234.85893060645975, 200.57869303926253 210.22590956947965 M147.30224210467085 267.6905863942833 C164.23453167718924 249.67879039188196, 180.88828313052034 230.52349159955108, 198.21910125530684 208.37090624421103 M151.92694555512946 270.8901979202508 C165.70064260831265 254.74037065107615, 181.41302565310357 236.02329906462055, 202.624236274388 210.7827667511775 M152.94936566158515 268.13115664255906 C171.9176890232133 244.59219937456294, 192.38151225740677 222.09683680117686, 203.8140187727924 208.7737472291811 M157.62461891720807 267.42041325624547 C173.67755921019955 250.0352002315999, 191.33684801088546 226.86668964091862, 208.72606536766781 208.31428289893978 M156.78730991246914 269.6774455035057 C169.53823312961273 255.11776242026104, 182.43482074801696 240.91518520684292, 209.59542348815395 209.10011688541584 M163.20396442095048 269.52667682602737 C178.01725772812046 252.84634496858612, 191.26595020450574 233.92786165218183, 212.3020269987894 211.697533208079 M162.34464717598863 269.4239452721897 C179.34602972953203 248.81895829330415, 198.1497583771656 228.2517629211421, 213.3358373740477 210.75815730275895 M166.92619680402518 269.5453946644635 C186.53280243137894 250.8686894457336, 204.2248560148778 228.37951772868007, 219.21899562643077 211.44941454368492 M165.69039248278082 270.03500387800943 C181.60071457465386 251.90330149743198, 198.22983122744358 234.36292440188086, 219.09860705712046 210.17278536583146 M169.87732246712918 271.4716327970891 C186.9034839039056 256.4546602204556, 203.19351357116193 237.6521139023523, 226.04363737229843 211.87048376151554 M172.0601494015115 270.7105823660313 C183.94452618214288 257.2929539375975, 195.84274386118608 243.7181324395614, 225.17616770204742 210.2420310749226 M175.46737558994997 273.06527891921655 C190.58146547617673 254.14145556949748, 204.49972467929368 240.63568173045118, 228.8537641950704 211.64170022666065 M177.0428461548369 270.60491657609896 C193.86030464582393 252.0574228075467, 210.73145705483086 233.04208150109002, 230.58889718547536 210.24628006465343 M181.64935910217508 271.73075197615856 C196.21035031900968 253.37743270659018, 213.84705404824834 234.21629979144515, 233.48909777443419 211.9682641344327 M182.4871765904133 272.0187267230564 C200.16442177040446 250.5260935077578, 218.94438616884614 229.16165290974413, 235.02337998006055 211.30461192486766 M186.45030371248248 272.8872925830047 C204.98466015619093 252.6490883909189, 216.6601551758814 237.96825003663358, 241.08232854007724 212.94990693014418 M187.7201592098874 272.08200781652437 C201.0683936395136 255.23004052312695, 214.53719806433452 240.75280450738848, 240.0509661834592 210.057590620409 M194.22203179257866 270.11280134551305 C208.90981569650293 252.95461393042808, 224.9253106191956 230.85455739594514, 245.59017470067764 209.95118172888488 M191.4854010529345 272.2103679817923 C206.81447141190503 254.3895713450439, 222.01902073842638 237.94081497977447, 246.3463305473181 210.3500549108985 M197.10857058013218 272.98587179855065 C212.80670501456888 253.78677285241184, 226.8298460451167 238.63729759801905, 252.0441461279418 209.7453016364128 M197.09801090019184 271.25956139825837 C211.1884880352259 257.42129632127285, 223.80415044843676 242.19315986202378, 249.62573636131245 210.68745667162543 M203.32873897583997 269.49375746765264 C218.43330883930906 255.485345843883, 229.4032611035685 241.72284071090834, 252.70583950155725 211.86559184804042 M204.41468607032513 271.24595536098906 C213.1612440459089 259.2515049910595, 224.17332791016594 246.85163340567647, 254.48983059809854 212.8998129924335 M208.01932463039904 272.89324312835436 C227.9311505808725 246.1456795794371, 246.79816569823527 224.1178015032001, 259.9419383091925 213.73048964863472 M208.36438950700014 271.5199015400509 C224.4188992816892 254.33266516380598, 237.4737806693027 237.8821867677186, 258.9861439133136 212.57920617772095 M216.07826103147792 272.57151606552276 C231.5346160571113 254.25275481038233, 245.56214095406696 235.272977598904, 263.81891770154454 211.54209231373096 M213.47902686585414 270.93910723984214 C230.9158579156998 249.60969344475197, 248.46544583342413 230.93593605675653, 263.89129550062336 213.29083164755428 M218.44721430078312 272.45413313491593 C235.7894863508887 253.7096743245717, 252.5923397106448 234.9948260860305, 270.9462215793104 215.14702836886448 M219.86353331156238 271.5891024606521 C237.94926489314952 250.9023607902973, 255.77769122345933 227.68302687868697, 269.24167017869365 214.7463691970001 M226.2350554259831 270.09234412140074 C233.70617161525044 256.83084270541497, 246.06651072606422 246.5660022067458, 275.3194396801585 214.89732884890213 M225.00684574976208 271.1830632568789 C243.21140715329153 250.35230954200279, 262.0936329156725 229.4612146687453, 274.8640954781616 214.97735425545648 M229.68832899979384 272.58047796095804 C246.4772008088951 253.59701208943974, 262.48700630422996 234.65526366507152, 278.6028943757954 216.05839435960203 M228.43987156613798 272.2916979590346 C248.79969580771245 249.52085868835593, 268.66852722756676 227.48807455822788, 278.3459284387025 216.0556449482128 M234.93896156786494 272.6244277780093 C244.28184212461107 259.61412910372, 254.36746571869543 246.48667185225247, 284.2531129038897 213.89631843583112 M234.1706969743084 271.724232211072 C252.4068650994541 249.59249059201363, 271.8384398901351 229.051445694899, 282.84602784095375 216.49324545466726 M240.35049425190277 271.4778754283125 C255.2397165222221 255.89070344281285, 265.68906816577436 240.70853052238772, 289.8014141651382 216.08585460312463 M240.71831963894851 270.7771335132802 C259.29385463208723 249.82202556961738, 278.4777865320212 226.44428098398208, 289.0648410035809 216.96277306988634 M246.64155498159496 270.0296148571801 C258.72402539325714 254.7025203954745, 272.77374899365384 241.19227252222365, 293.6970858102381 217.5712876370179 M246.92362090771465 271.6339345805031 C260.56297101268996 254.88395713620258, 273.83424378642036 239.52476323369828, 291.77508087024984 216.4708294639366 M252.44874043662892 271.4379712599247 C262.9790507172338 256.9212492452374, 277.8192708953765 242.63673469146033, 296.83844326887663 220.9367239828234 M251.19974775326298 271.3121525025844 C266.7900891633243 252.93998431502874, 282.40886880355816 233.83721957523753, 297.0402850386166 220.04079110166182 M259.2016160466922 270.25580108185875 C266.1550872569841 255.981812988383, 280.02781363811437 244.33736550031867, 300.1038887787226 220.77638217540803 M258.0946127732498 270.10078874436783 C269.7784828347489 255.53091411832793, 283.14926981077605 241.76519935907814, 301.43337478931875 220.3955996624601 M263.99771599147226 269.55549201829473 C272.9749385439159 258.72800622484147, 279.3088735258487 250.3359130506735, 305.9466162404728 220.59314074030715 M262.85339419033136 269.99782914569715 C277.3635736872344 251.00586771893126, 292.9397469121293 234.2552806145883, 305.3188599410218 222.16880994139808 M269.13360222964707 269.2992534343224 C282.1191932056489 252.35832328921674, 297.8432248908499 237.85996262531177, 309.8938473338148 222.90469987283325 M268.6370948811543 268.39303434119336 C284.62786059957847 250.89863379383277, 298.06567392956094 235.22193418477534, 310.0395749663821 223.32325152831947 M277.6677464409043 264.97353552525425 C285.1303497723205 258.82145229721425, 293.2811773556804 249.8911222664184, 312.76577248843614 223.12329101829874 M275.77292431837515 266.0148589207002 C287.69327446223554 254.53855890367058, 296.7300914089298 243.11495794415853, 313.8231199630559 224.34323838806796 M281.6394709969502 265.4687388968483 C291.37484575796145 254.5931390558193, 302.22619380486475 243.62049968598356, 317.55055088402423 226.68067687201622 M281.6607395416688 266.12266100950694 C293.2521543958088 251.63211548618654, 306.4181458033209 237.6926237361341, 318.34436065369937 224.67206886048737 M290.224244106463 262.43066666419435 C295.25028751860117 256.3249840624626, 301.8143710736254 246.9921149175521, 322.2793104502666 226.15315137929812 M288.61584030268233 265.1706543672346 C296.7100506217826 254.39572407191164, 307.20637433664234 245.32366777310648, 321.2879283859688 225.1495256604214 M296.6405027281205 261.64965319238206 C302.69047833915016 253.82354570510694, 309.2126130790707 244.52478454471265, 325.5572068958413 225.63183015523424 M296.4632919780622 261.5095371285041 C305.32645332637765 252.207337554946, 313.79898329987003 240.89466365874551, 327.566779161511 225.6946662974911 M301.0564754836294 262.44969283716955 C314.4827961856538 247.31071438715736, 326.40968096502553 235.28312417852908, 331.50206953447383 230.37590796602814 M301.13224848248393 262.0881205436049 C308.04405305376656 253.65692702594188, 315.39671400223256 246.92747308384438, 329.9483394620202 228.27158055743126 M307.4015368316675 258.2851824636464 C315.8628614953809 251.27745245008654, 328.19559014167436 240.39386570723977, 334.4921096328231 230.88114376632393 M309.154806442594 260.36257149715766 C316.3693347159972 250.37216432853285, 324.7379387339769 241.00997660471452, 333.4897145971241 232.27037553941727 M314.27302998091295 260.1300501869025 C322.67334214479075 249.6625652214988, 326.7054663646307 243.27062549431244, 337.48033012057664 235.55195650143423 M316.2603281100394 258.9980412487837 C320.25532549153706 253.4185991046103, 325.49539370373435 246.9656623474257, 335.5395984144789 234.491771458293 M323.8112668900437 253.6027553720275 C329.2408826546223 247.36498641609023, 332.83180451217675 242.36736328935174, 338.83770267742204 237.5622963666715 M323.93794136146676 254.30616543310379 C329.9427089589803 249.30702375921348, 336.0008352692707 242.18317143395734, 340.26895038674104 237.3204729039021 M333.07592674182774 249.85722739064903 C334.31542115506824 246.08713220277608, 337.8656976547487 243.4753421865751, 341.51046624300955 239.81201922440727 M332.64431031491654 250.3006839598699 C334.5819487821166 248.60250532531646, 336.87531004271415 244.62466067186685, 343.01446215189947 239.1985372497124 M63.200367324848415 248.9136953996582 C63.200367324848415 248.9136953996582, 63.200367324848415 248.9136953996582, 63.200367324848415 248.9136953996582 M63.200367324848415 248.9136953996582 C63.200367324848415 248.9136953996582, 63.200367324848415 248.9136953996582, 63.200367324848415 248.9136953996582 M74.19557256038914 253.78417340782838 C73.14962324912709 252.16449824043636, 68.05438002180986 245.6117663808927, 61.77026153778948 242.1975595880814 M74.19770101431439 254.52677283366577 C69.37120966638852 250.04620452554025, 63.91312383272792 244.99976247249992, 59.47703401608683 239.81185947959796 M88.06351987257516 258.8573452568971 C76.55131597488766 252.37749215660347, 67.55902533861251 242.95162753711023, 61.37970813599121 234.06417317325315 M86.98866040430879 258.3159525710516 C80.80422882895718 255.04595803223805, 75.03747405075696 249.52418215212253, 59.3100622263987 236.1864712332382 M91.93986064185593 258.531787763446 C84.70673840933041 250.86716757952323, 78.11501719630725 244.23955164755142, 61.3805303315507 232.23198310198825 M93.26550844487939 258.8768875087643 C85.32264154521832 251.8532903349598, 78.83272131116472 246.08817149139577, 63.010313278331026 233.4846071350072 M103.2370471157717 261.98906289706775 C88.75813365990511 251.0689258927998, 79.3300640024067 239.1091459544468, 65.67944665933493 229.7715617459931 M100.70809240309768 260.81612740936527 C88.65664640829523 248.87741622749945, 74.44959903213741 237.55209736065453, 66.14447885128203 229.34049922458013 M108.07583824896668 262.1749340004783 C95.74295248389038 251.2197901266023, 88.11234318487867 241.7712533867026, 67.5824164844336 228.57750925596474 M107.89401937813912 261.5962202835392 C95.51301718142535 249.72706879396583, 79.54700421477062 238.28523642599552, 69.68044457987267 228.4917041956228 M115.99507214719885 264.48342831134613 C107.3504521527755 254.4023442404209, 93.76042465709793 246.05332393593568, 70.91964000215926 224.24345356159074 M116.32092874529296 263.90727491192337 C99.28154583605118 248.06757781345746, 83.09709281194014 233.899295320083, 72.42479005394675 225.34160339579148 M123.03898942555801 266.38336473036827 C106.80836740881324 250.16421281419417, 91.71761387551925 236.46601757604049, 75.92526781826987 223.59310940053953 M124.80631551418023 264.9809886131835 C105.77719270820772 250.36699666793842, 89.55672003658069 234.70774244459318, 78.21499839879348 225.1779618557234 M131.90107152935659 264.9175899372322 C116.03523528549253 255.26822181709585, 102.07530633712048 238.99067892015148, 83.07943388740969 220.96286511552708 M132.9438686496446 265.7773833599759 C121.73693432308035 256.92392148457924, 110.6715372471192 247.45856053040217, 81.07398921358836 222.14301508610325 M138.7849119934616 267.6098013036444 C129.45634763773717 255.46609991652826, 114.72228286784414 248.02490576679423, 85.78035131533672 221.63737294422197 M139.27684233108437 267.5791286919757 C117.4519479269493 249.4349156233032, 98.84906909191818 231.72854363720433, 87.19471437362064 222.35655936756837 M147.81218350385382 265.93196009626394 C132.81336031376003 255.97045004868917, 116.1950973819266 242.2757037120553, 93.43163571714072 221.47607678732112 M147.01852301401152 267.1464549188108 C128.87052695727618 253.57204415030344, 112.11212177474727 238.2602397112288, 91.33998138851135 221.22997951878443 M152.60054209540024 269.61870118679724 C129.68784665094276 246.73001518457008, 108.89465728032471 229.0686318647097, 95.58614353813417 218.41244832451213 M152.94263362782434 268.7190628301563 C135.46927252208172 253.3364702813607, 116.85200560823652 237.41503768633794, 96.29879172310419 218.65298501240778 M160.1810133738589 269.44686431291285 C145.09873973006572 257.31472748490233, 131.28881410588454 246.7131933830431, 102.31626247362955 216.67292798548237 M158.61321979781206 268.48315495664957 C140.53816317487087 253.59772702240124, 122.5798769905893 237.49068806168245, 100.56913121724291 218.90005094609455 M166.0853158740967 268.86202184631725 C147.6487595923955 252.67629842551082, 130.6456809537598 239.9235298146869, 105.33891146893941 215.65192494991945 M166.7844732033729 269.8854633379658 C147.89694324898758 253.81253274520833, 129.13241764728463 237.74114434214746, 106.79547008577131 217.19291804250108 M173.50853770187172 270.101951024679 C157.8638255084559 256.8486714506614, 145.62384817024775 244.92699415150997, 111.89525029959898 215.4428761765013 M173.87590821979614 269.44422175474233 C151.55105646475894 252.38306712918532, 130.71281492979043 233.8538345356392, 112.96097249875586 216.91915167827406 M179.64175031182816 269.16710269071393 C159.47513967423762 250.79380402022082, 139.0881016238132 235.62301509675842, 118.85684125047521 215.08901028693444 M179.61747569625726 269.4071344676637 C160.9599610764163 254.01707171876464, 141.0649837706753 238.3522759786922, 117.80615826059477 215.57040576808876 M184.3441043097241 271.25619158209076 C167.8986424415669 258.1827613080654, 155.34253789384405 245.13083554161588, 123.13361617732622 214.05076076888741 M185.03415875804555 268.8744665073674 C170.6772419320857 258.4403815067035, 156.77501484668616 246.6741822267473, 122.5493698715774 215.89733596758248 M190.7395719710947 271.70484215748735 C167.65982831039628 250.84444619961164, 148.6971570777588 232.42640845573536, 128.76119986501888 215.83229374406665 M190.35521532522748 270.42518950050004 C174.91110664609016 255.7827609149473, 157.94066246716744 241.60633799089706, 127.28659588610188 215.22362744143038 M196.832528080807 267.5484705386102 C173.59682287818015 252.28314381460208, 154.92924325241134 232.84314067955847, 134.06358666931126 214.10498020014074 M195.94225895220129 269.3673636117369 C177.58980682783098 251.82995249906182, 159.66266289256544 236.90046950377524, 133.46664755445752 213.25696709526983 M201.91571699461906 270.9896977131279 C187.4232076411301 255.5909351420964, 171.82235127649648 240.85208633154724, 139.49517345529313 212.98998278780658 M202.0097258892563 268.89305074671523 C177.11828483513082 247.30974668490677, 151.7040662690982 225.52683090266135, 139.04569176126535 214.05913037276645 M209.65757599739777 269.0248773027469 C185.9752620714111 247.8778942704673, 163.01900977818076 228.5806172938652, 143.02988833805412 213.9014329077612 M209.02469844079064 269.39234232011034 C193.17173580840375 255.98466393705294, 176.07209691707712 241.74646617705986, 143.18887976614624 212.57665834258603 M215.2649119449012 269.5675677951357 C191.3609019182552 248.386876392441, 167.46461847776 229.04009186040813, 146.7956098431296 213.73354876868265 M214.18208160709366 270.2643314875594 C196.59196855140098 254.55239978261278, 179.70752046950304 238.85093236834942, 148.21726636416682 212.51547575637537 M220.57022462199632 269.07506031200074 C200.19005304930403 253.7619190104275, 184.3001399848884 235.89780305314375, 152.68974774605482 212.42351732924888 M219.80442644256357 269.23114091373765 C205.58505998237277 255.1869103749758, 190.491808275511 242.03502758917986, 154.53589072539359 211.59127299078116 M225.19438338444115 270.6718508410106 C210.81763667561748 254.09324004861537, 194.7390998906419 241.28883787661303, 157.99482391191947 212.5143762401569 M227.81710669748963 270.1488950042824 C206.23722843754376 251.25157737226894, 185.21745789795386 232.78564243585618, 159.56185723444747 210.7798879894692 M233.6339505171027 267.7761680038718 C205.480925755731 245.6600066104187, 181.3291899193146 223.9675797170144, 166.76760103603607 209.99819093109426 M232.1481421762701 268.3217476738689 C208.26242284281994 246.7776859327658, 182.59786736661988 224.92186255526008, 166.42596423117226 210.84798335009572 M237.66914829551615 269.56738625926226 C218.49699031427306 254.44398778950244, 199.99198895146316 235.9785760762404, 170.20937306371712 210.53499558174838 M238.44866579897143 267.65679554914385 C213.0320520334315 246.9483952537072, 187.35088579139227 225.30854971021705, 171.6554944304117 210.25948729531694 M242.47002066499414 267.2367897868695 C223.02126679483587 249.75820400036446, 198.57326264985153 228.6526149605963, 175.79096519027513 210.32779312180682 M243.5115852804375 268.6023418527635 C226.0709216110829 252.0333714976132, 207.03062004555787 236.77580926948332, 177.61171492200953 209.73809367278918 M248.476142820849 267.51863151638105 C228.42235302726957 248.75248955010377, 210.54142177700794 231.79946444335678, 180.3777338610226 208.99755523095706 M250.46379271051185 267.36645543238416 C232.43226060808482 252.5302351264336, 214.0138318054263 238.14473242050866, 182.9273771708095 208.82976195516864 M256.52162120839336 265.5651331274844 C237.62848503565039 251.265042045747, 218.22619593537377 235.61563864780507, 187.354566771272 210.45822233888657 M255.20366455403843 266.479470760662 C237.24192060886296 253.19742707215266, 220.5673634197442 238.00941897425037, 188.9442170166554 208.46521724011154 M260.96009352293964 265.8214850498671 C235.53095883086118 244.5093742889604, 213.15106598782245 224.1725212298754, 191.7508828663359 207.79170362528288 M260.83856165086087 267.3564879352534 C242.06671180202036 252.04120438003554, 224.57054806983666 237.08387606247405, 194.15045467439094 209.52245025027418 M266.78972870980033 266.9008464632165 C245.5352059859199 246.32743564279647, 224.51335026092605 231.47065833283017, 197.36563234152672 208.1228770198335 M266.1223292158229 266.8598726788145 C240.75201568789947 244.90235747200217, 217.00838816914452 223.18219060327485, 198.61829473385987 207.3892173333128 M270.7782269642881 266.45934529722024 C248.96498297699173 245.36350145001353, 222.19572975692603 224.59225296807836, 206.64700622237976 210.15064823121642 M271.89279683876845 265.86175633900154 C256.05289850536053 252.0707669794156, 237.87983265655893 236.067615977038, 205.1961357401287 209.18159949087416 M278.58781973171523 266.07107823156576 C256.9913033348374 250.5615413346619, 239.97561091024926 232.2073724050474, 211.55330762398478 207.05477366012866 M277.5092784845411 265.8065358884708 C253.2839345945642 244.43119938036932, 230.5071593870466 225.58306845666866, 211.68194145281848 208.33832529162402 M281.14556012717156 263.4470516669501 C265.74978796667597 251.5917454199092, 251.2699205420872 236.86584636923425, 216.94208049165422 209.33903748625767 M282.53536291276185 264.61731489588806 C263.5762253234108 248.68670533580826, 242.56210493581443 231.07963742470076, 217.52486958677287 209.15144795821857 M286.03245167619235 263.27835881205124 C275.5246896741321 253.2770133933636, 260.49252098027506 240.86880481963402, 224.94040002070062 209.05019263929097 M287.4405424184973 263.2265806129001 C266.32802577381347 245.64313887494922, 247.12128993143799 229.03674769548826, 225.50806223183565 208.6727863383141 M292.3443195740901 264.14300259655664 C267.41595093759975 243.04460500336594, 248.17046342720272 221.77077954964096, 232.0698726564365 208.65296079891607 M291.7735840915911 262.170526887163 C271.5044489167405 243.02802107514952, 249.82461125664673 224.52324705237925, 232.18614585285061 209.27642490456685 M296.5715202661773 260.0369547001539 C277.35717834745594 245.00033268551593, 259.69157294289244 229.506768383422, 238.3716360941743 209.9050323948205 M297.35473939688706 260.80761319133325 C282.2612927727005 248.16393416253882, 267.6820522701062 236.3827038160866, 238.32273128966145 209.2212137546331 M301.72394144776644 261.2491555525304 C280.9133606317705 245.08185719924714, 264.98246257716085 226.0749541379828, 244.53135927922656 210.7320666066917 M302.7132441742289 259.8810646230669 C283.85844165783016 246.71245209635566, 267.05603918417427 230.5665372894496, 243.32791375711193 209.21326861116907 M306.45600206417004 259.2365143333737 C288.2409510353446 244.3606124216946, 272.59262347390865 228.66578607293536, 249.0042424069058 210.10269136421718 M307.52481863846043 260.08137190502026 C294.5185993328624 248.75835001436786, 280.96567022064676 237.2855482910059, 249.69577284504584 210.968470821831 M310.1916523107006 259.4989089723713 C293.7074401810567 242.25680788544182, 273.07029931603995 223.63224258980148, 257.89472650274723 209.559562376075 M311.04916737942534 258.6087913848496 C296.5286161828273 245.2047840110358, 280.1172049789956 231.4477428185067, 258.19658209852963 210.4310263882657 M318.2493736326706 258.4541861492107 C299.8259902733737 244.12180486817897, 281.87877834759126 229.0041515789563, 264.57207426206344 212.78224507195262 M316.5674793619674 257.73584503521124 C302.52122038231204 244.43615489581416, 287.2040374575146 230.2785370526908, 264.80488985740715 213.02384790812937 M322.2124691451698 255.65710226458893 C303.49668764743006 241.51788975277185, 290.0383397834842 227.82195907732083, 274.0406604697213 213.8061555735565 M321.0652183457076 254.7137614247708 C308.3418879519682 242.9630014570169, 294.27838275704437 231.37158500058734, 272.3823096760765 213.55499554609725 M322.5634827935106 251.98644149819341 C313.20171417607395 243.40503164585886, 300.05567846677616 230.040365634047, 279.83851990125606 213.1778558395647 M325.1790420454896 253.6470937761846 C306.494854455344 237.83365274723602, 290.59549088532884 224.13944997013834, 278.8885682246042 214.0604721788161 M326.5639089334512 251.1760748376927 C316.42695734836667 241.44035311208125, 302.0630435906661 229.58865347096173, 286.1435090019803 216.20581754966466 M328.38901171160285 250.71227899508986 C318.10150292928614 242.65954277010556, 307.3764542987645 233.66249878870343, 286.8001669678341 215.74248727894215 M333.6056444300813 249.40966493378374 C323.836588111462 240.9970164612441, 312.1739826096453 234.14851321430984, 293.65301546720656 214.49148113354394 M331.6825442286683 249.4398425251523 C318.4977417491169 239.31698729691402, 305.32728466813506 227.38112867029386, 294.30259174560996 216.1880159441317 M335.3548269787133 246.81990221615413 C325.19312243008454 238.5980025578871, 317.04944584783277 227.8550967973705, 302.9730869829155 220.77243285786156 M337.0107504365295 247.90113446402827 C323.8718698631964 237.70007431509976, 312.0151724088329 226.86345872843515, 303.9919415134437 219.89947598401253 M337.85799678399144 245.73926877751978 C327.3573345886325 234.28691134151683, 317.42908168454244 228.2933505039012, 312.1963354235287 223.236814536343 M338.70709680936216 244.64659344740244 C330.116015617724 236.21116285222536, 321.2702624362609 229.04846598006336, 311.7653325402881 222.29663763027884 M340.70477320167373 240.82351060554925 C336.97846776946284 235.42956613224231, 329.3482715314507 231.63327250492284, 319.08345181458134 222.27103187766616 M339.96258209745537 240.5167188809121 C336.0871202721063 235.42306152519922, 329.7544595522391 233.2150504320944, 320.3149133712097 224.15183188457732" stroke="lightgreen" stroke-width="0.5" fill="none"/><path d="M146.48052292427266 212.59893784850837 C160.81330684343322 210.85200316837677, 181.68319134709242 209.27040662548757, 198.96481507236507 209.02635249932487 C216.24643879763772 208.78229837316218, 234.30997136987514 209.76684437050142, 250.1702652759085 211.1346130915323 C266.03055918194184 212.50238181256316, 281.3099279887641 214.80038241068763, 294.1265785085651 217.23296482551 C306.9432290283661 219.6655472403324, 319.26648746401196 222.343659281125, 327.07016839471436 225.73010758046658 C334.87384932541676 229.11655587980815, 339.3451244161292 233.7378267252999, 340.94866409277955 237.55165462155938 C342.5522037694299 241.36548251781886, 340.98831770355554 245.15060894114964, 336.6914064546165 248.61307495802342 C332.3944952056775 252.0755409748972, 325.3169646194385 255.40949420944878, 315.16719659914554 258.3264507228021 C305.01742857885256 261.24340723615546, 290.52018718637396 264.1847551286028, 275.79279833285847 266.11481403814355 C261.065409479343 268.0448729476843, 243.56205055318333 269.1614325685486, 226.80286347805256 269.9068041800466 C210.0436764029218 270.6521757915446, 191.9142831231487 271.17424230068394, 175.23767588207383 270.5870437071315 C158.56106864099897 269.99984511357906, 141.39892821227323 268.28437075880174, 126.74322003160339 266.38361261873183 C112.08751185093354 264.4828544786619, 97.92169535425323 262.11830791420005, 87.30342679805479 259.1824948667121 C76.68515824185634 256.24668181922414, 67.8915409872117 252.46516086426976, 63.03360869441275 248.76873433380408 C58.175676401613806 245.0723078033384, 56.78603287083679 240.80566766161027, 58.15583304126113 237.00393568391797 C59.525633211685474 233.20220370622567, 63.63569701529441 229.12202183837132, 71.2524097169588 225.95834246765025 C78.86912241862318 222.79466309692918, 90.75487399281151 220.37854869862238, 103.85610925124745 218.0218594595916 C116.95734450968338 215.66517022056084, 141.67752651001163 212.873876962974, 149.85982126757438 211.81820703346568 C158.04211602513712 210.76253710395736, 152.1417033727219 211.13998704180952, 152.9498777966239 211.68783988254162 M139.99826071352078 212.20283783127744 C153.50820674243664 210.02116683116026, 171.47412886895427 209.1879658580287, 188.4801998118553 209.2214738102824 C205.48627075475633 209.2549817625361, 225.7308044087647 211.29051491096527, 242.03468637092695 212.4038855447996 C258.3385683330892 213.51725617863394, 273.06805442904044 213.6418388284884, 286.30349158482875 215.90169761328835 C299.53892874061705 218.1615563980883, 312.5874663866878 222.77048304729092, 321.44730930565686 225.9630382535993 C330.3071522246259 229.1555934599077, 336.32343544111586 231.54138099563534, 339.46254909864285 235.0570288511387 C342.60166275616984 238.57267670664208, 343.43008919054444 243.32286385152238, 340.28199125081863 247.0569253866195 C337.13389331109283 250.7909869217166, 330.08839341527926 254.69950486803737, 320.5739614602879 257.46139806172135 C311.0595295052965 260.22329125540534, 297.0742364558096 261.70627294598734, 283.1953995208704 263.6282845487235 C269.3165625859312 265.5502961514597, 253.97407656753776 268.05659220201727, 237.30093985065272 268.9934676781384 C220.62780313376769 269.93034315425956, 200.08233516687244 269.83772730947135, 183.15657921956011 269.2495374054505 C166.2308232722478 268.66134750142965, 150.55770086429933 267.15132722471066, 135.7464041667787 265.4643282540133 C120.93510746925804 263.77732928331596, 105.94806961418095 261.6843665755308, 94.28879903443621 259.12754358126654 C82.62952845469147 256.57072058700226, 71.71158773138585 253.20512416973662, 65.7907806883102 250.12339028842774 C59.869973645234566 247.04165640711886, 58.3617908542778 243.9889622342355, 58.763956775982365 240.63714029341324 C59.16612269768693 237.285318352591, 61.84807208839883 233.68815079534525, 68.2037762185376 230.0124586434943 C74.55948034867636 226.33676649164337, 85.25093005532446 221.66753862474513, 96.89818155681496 218.58298738230758 C108.54543305830546 215.49843613987002, 131.05802477248653 212.2644484379122, 138.0872852274806 211.50515118886906 C145.11654568247468 210.74585393982593, 138.11978830797796 213.154150089099, 139.07374428677937 214.02720388804877" stroke="#000" stroke-width="1" fill="none"/></g></svg>